<svg xmlns="http://www.w3.org/2000/svg" version="1.1" width="80" height="80"><g transform="translate(0, 10)"><path d="M 12.5 10 Q 30 30 12.5 50" fill="none" stroke="black" stroke-width="3" /><line x1="12.5" y1="10" x2="40" y2="10" stroke="black" stroke-width="3" /><line x1="12.5" y1="50" x2="40" y2="50" stroke="black" stroke-width="3" /><circle cx="12.5" cy="10" r="1.5" fill="black" /><circle cx="12.5" cy="50" r="1.5" fill="black" /><circle cx="40" cy="10" r="1.5" fill="black" /><circle cx="40" cy="50" r="1.5" fill="black" /><path d="M 40 10 A 30 30 0 0 1 60 30" fill="none" stroke="black" stroke-width="3" /><path d="M 40 50 A 30 30 0 0 0 60 30" fill="none" stroke="black" stroke-width="3" /><line x1="0" y1="20" x2="20" y2="20" stroke="black" stroke-width="3" /><line x1="0" y1="40" x2="20" y2="40" stroke="black" stroke-width="3" /><line x1="60" y1="30" x2="80" y2="30" stroke="black" stroke-width="3" /></g></svg>