<svg xmlns="http://www.w3.org/2000/svg" version="1.1" width="512" height="512"><g transform="translate(32, 32)"><rect x="0" y="0" width="128" height="60" fill="white" stroke="black" stroke-width="5" /><g transform="translate(25 0)"><line x1="20" y1="10" x2="20" y2="50" stroke="black" stroke-width="3" /><line x1="20" y1="10" x2="60" y2="30" stroke="black" stroke-width="3" /><line x1="20" y1="50" x2="60" y2="30" stroke="black" stroke-width="3" /><circle cx="20" cy="10" r="1.5" fill="black" /><circle cx="20" cy="50" r="1.5" fill="black" /><line x1="0" y1="30" x2="20" y2="30" stroke="black" stroke-width="3" /><line x1="60" y1="30" x2="80" y2="30" stroke="black" stroke-width="3" /></g><g><line x1="0" y1="30.0" x2="25" y2="30.0" stroke="black" stroke-width="3" /><circle cx="25" cy="30.0" r="1.5" fill="black" /><line x1="25" y1="30.0" x2="25" y2="30" stroke="black" stroke-width="3" /><circle cx="25" cy="30" r="1.5" fill="black" /></g><g><circle cx="105" cy="30" r="1.5" fill="black" /><line x1="105" y1="30" x2="105" y2="30.0" stroke="black" stroke-width="3" /><circle cx="105" cy="30.0" r="1.5" fill="black" /><line x1="105" y1="30.0" x2="128" y2="30.0" stroke="black" stroke-width="3" /></g><g transform="translate(-12.5 17.5) scale(0.05, 0.05)"><circle cx="256" cy="256" r="255" fill="rgb(253, 0, 76)" stroke="black" stroke-width="25" /><circle cx="256" cy="256" r="127" fill="white" stroke="black" stroke-width="25" /></g><g transform="translate(115 17.5) scale(0.05, 0.05)"><circle cx="256" cy="256" r="127" fill="rgb(253, 0, 76)" stroke="black" stroke-width="25" /></g></g></svg>