<svg xmlns="http://www.w3.org/2000/svg" version="1.1" width="512" height="512"><g transform="translate(32, 32)"><rect x="0" y="0" width="128" height="110" fill="white" stroke="black" stroke-width="5" /><g transform="translate(25 25)"><path d="M 12.5 10 A 5 10 0 0 1 12.5 50" fill="none" stroke="black" stroke-width="3" /><path d="M 7.5 10 A 5 10 0 0 1 7.5 50" fill="none" stroke="black" stroke-width="3" /><line x1="12.5" y1="10" x2="40" y2="10" stroke="black" stroke-width="3" /><line x1="12.5" y1="50" x2="40" y2="50" stroke="black" stroke-width="3" /><circle cx="12.5" cy="10" r="1.5" fill="black" /><circle cx="12.5" cy="50" r="1.5" fill="black" /><circle cx="40" cy="10" r="1.5" fill="black" /><circle cx="40" cy="50" r="1.5" fill="black" /><circle cx="7.5" cy="10" r="1.5" fill="black" /><circle cx="7.5" cy="50" r="1.5" fill="black" /><path d="M 40 10 A 30 30 0 0 1 60 30" fill="none" stroke="black" stroke-width="3" /><path d="M 40 50 A 30 30 0 0 0 60 30" fill="none" stroke="black" stroke-width="3" /><line x1="0" y1="20" x2="20" y2="20" stroke="black" stroke-width="3" /><line x1="0" y1="40" x2="20" y2="40" stroke="black" stroke-width="3" /><line x1="60" y1="30" x2="80" y2="30" stroke="black" stroke-width="3" /></g><g><line x1="0" y1="30.0" x2="25" y2="30.0" stroke="black" stroke-width="3" /><circle cx="25" cy="30.0" r="1.5" fill="black" /><line x1="25" y1="30.0" x2="25" y2="45" stroke="black" stroke-width="3" /><circle cx="25" cy="45" r="1.5" fill="black" /></g><g><line x1="0" y1="80.0" x2="25" y2="80.0" stroke="black" stroke-width="3" /><circle cx="25" cy="80.0" r="1.5" fill="black" /><line x1="25" y1="80.0" x2="25" y2="65" stroke="black" stroke-width="3" /><circle cx="25" cy="65" r="1.5" fill="black" /></g><g><circle cx="105" cy="55" r="1.5" fill="black" /><line x1="105" y1="55" x2="105" y2="55.0" stroke="black" stroke-width="3" /><circle cx="105" cy="55.0" r="1.5" fill="black" /><line x1="105" y1="55.0" x2="128" y2="55.0" stroke="black" stroke-width="3" /></g><g transform="translate(-12.5 17.5) scale(0.05, 0.05)"><circle cx="256" cy="256" r="255" fill="rgb(253, 0, 76)" stroke="black" stroke-width="25" /><circle cx="256" cy="256" r="127" fill="white" stroke="black" stroke-width="25" /></g><g transform="translate(-12.5 67.5) scale(0.05, 0.05)"><circle cx="256" cy="256" r="255" fill="rgb(253, 0, 76)" stroke="black" stroke-width="25" /><circle cx="256" cy="256" r="127" fill="white" stroke="black" stroke-width="25" /></g><g transform="translate(115 42.5) scale(0.05, 0.05)"><circle cx="256" cy="256" r="127" fill="rgb(253, 0, 76)" stroke="black" stroke-width="25" /></g></g></svg>